<svg width="100" height="100" viewBox="0 0 100 100" fill="none" xmlns="http://www.w3.org/2000/svg">
<path d="M51.2912 21.751C52.5953 21.751 54.3339 26.4751 53.03 30.7267C56.5074 30.7267 55.638 21.751 55.638 21.751C56.5074 22.2235 59.1154 21.2786 59.1154 21.2786C56.9419 20.8062 56.1173 19.4351 56.9419 18.4443C65.2008 8.52404 69.9146 27.2725 67.3741 30.2543C56.5074 43.0088 60.4193 46.788 60.4193 46.788C57.8113 54.3464 42.5979 70.4077 42.5979 70.4077C35.2084 57.1807 42.1632 48.2053 43.902 46.788C45.6406 45.3707 46.0753 49.6223 46.0753 49.6223C47.3791 45.8432 52.1606 46.788 52.1606 46.788C49.5526 39.7021 42.1632 41.1194 42.1632 41.1194C42.1632 41.1194 42.5979 42.064 43.902 42.064C45.2059 42.064 39.5552 44.4261 38.2511 45.3707C36.9472 46.3156 37.8164 43.4813 37.8164 43.4813C34.3392 46.788 34.7737 51.5121 33.9045 53.8739C33.0351 56.2358 32.1657 53.4015 32.1657 53.4015C30.8616 58.1256 32.6004 62.8493 32.1657 64.7391C31.731 66.6285 29.9924 65.2115 29.9924 65.2115C30.8616 74.1869 33.9045 78.9109 33.9045 78.9109C14.3443 96.862 -1.18688e-06 91.6655 -1.18688e-06 91.6655C2.60799 94.0274 11.3016 100.641 16.0828 97.8066C20.8643 94.9723 27.3844 99.2239 27.3844 99.2239C29.9924 94.9723 38.6858 90.7206 44.3364 94.0274C75.4873 112.257 89.1076 83.1625 90.8464 80.8004C92.585 78.4385 93.8891 84.1071 93.8891 84.1071C101.713 76.0766 94.7585 65.6839 95.1932 62.8494C95.6277 60.015 99.5398 65.2115 99.5398 65.2115C102.582 56.7083 89.5423 45.8432 89.5423 43.4813C89.5423 41.1194 93.8891 43.4813 93.8891 43.4813C89.5423 34.5059 76.0674 34.9781 76.0674 34.9781C76.0674 34.9781 76.9368 29.7818 78.241 27.8921C79.5448 26.0027 80.4142 29.3094 80.4142 29.3094C82.153 23.6408 79.1104 21.2786 76.5021 16.5548C75.1983 13.7205 79.5448 14.6651 79.5448 14.6651C75.633 8.52404 70.8515 11.2403 68.2435 7.93356C66.9396 6.51628 69.9823 5.33533 69.9823 5.33533C66.5047 3.32782 63.0275 7.57918 59.9848 4.98119C57.3152 2.70153 65.2008 0.021066 65.2008 0.021066C49.5526 -0.451362 53.03 7.10675 44.3364 14.1927C44.3364 16.0824 43.902 19.3892 43.902 19.3892C38.6858 29.7818 44.7711 30.2543 44.7711 30.2543C42.1632 26.4751 49.9874 21.751 51.2912 21.751V21.751ZM71.2862 51.9845C100.844 64.2666 70.4168 96.3895 52.1606 83.635C52.1606 80.8004 58.246 80.328 58.246 80.328C59.1154 68.0458 68.6782 67.5734 68.6782 67.5734C66.9394 60.4875 70.9355 51.233 71.2862 51.9845V51.9845Z" fill="black"/>
</svg>
