<svg width="100" height="100" viewBox="0 0 100 100" fill="none" xmlns="http://www.w3.org/2000/svg">
<path d="M48.7088 21.751C47.4047 21.751 45.6661 26.4751 46.97 30.7267C43.4926 30.7267 44.362 21.751 44.362 21.751C43.4926 22.2235 40.8846 21.2786 40.8846 21.2786C43.0581 20.8062 43.8827 19.4351 43.0581 18.4443C34.7992 8.52404 30.0854 27.2725 32.6259 30.2543C43.4926 43.0088 39.5807 46.788 39.5807 46.788C42.1887 54.3464 57.4021 70.4077 57.4021 70.4077C64.7916 57.1807 57.8368 48.2053 56.098 46.788C54.3594 45.3707 53.9247 49.6223 53.9247 49.6223C52.6209 45.8432 47.8394 46.788 47.8394 46.788C50.4474 39.7021 57.8368 41.1194 57.8368 41.1194C57.8368 41.1194 57.4021 42.064 56.098 42.064C54.7941 42.064 60.4448 44.4261 61.7489 45.3707C63.0528 46.3156 62.1836 43.4813 62.1836 43.4813C65.6608 46.788 65.2263 51.5121 66.0955 53.8739C66.9649 56.2358 67.8343 53.4015 67.8343 53.4015C69.1384 58.1256 67.3996 62.8493 67.8343 64.7391C68.269 66.6285 70.0076 65.2115 70.0076 65.2115C69.1384 74.1869 66.0955 78.9109 66.0955 78.9109C85.6557 96.862 100 91.6655 100 91.6655C97.392 94.0274 88.6984 100.641 83.9172 97.8066C79.1357 94.9723 72.6156 99.2239 72.6156 99.2239C70.0076 94.9723 61.3142 90.7206 55.6636 94.0274C24.5127 112.257 10.8924 83.1625 9.15359 80.8004C7.41501 78.4385 6.11091 84.1071 6.11091 84.1071C-1.71305 76.0766 5.2415 65.6839 4.8068 62.8494C4.37232 60.015 0.460231 65.2115 0.460231 65.2115C-2.58246 56.7083 10.4577 45.8432 10.4577 43.4813C10.4577 41.1194 6.11091 43.4813 6.11091 43.4813C10.4577 34.5059 23.9326 34.9781 23.9326 34.9781C23.9326 34.9781 23.0632 29.7818 21.759 27.8921C20.4552 26.0027 19.5858 29.3094 19.5858 29.3094C17.847 23.6408 20.8896 21.2786 23.4979 16.5548C24.8017 13.7205 20.4552 14.6651 20.4552 14.6651C24.367 8.52404 29.1485 11.2403 31.7565 7.93356C33.0604 6.51628 30.0177 5.33533 30.0177 5.33533C33.4953 3.32782 36.9725 7.57918 40.0152 4.98119C42.6848 2.70153 34.7992 0.021066 34.7992 0.021066C50.4474 -0.451362 46.97 7.10675 55.6636 14.1927C55.6636 16.0824 56.098 19.3892 56.098 19.3892C61.3142 29.7818 55.2289 30.2543 55.2289 30.2543C57.8368 26.4751 50.0126 21.751 48.7088 21.751V21.751ZM28.7138 51.9845C-0.843876 64.2666 29.5832 96.3895 47.8394 83.635C47.8394 80.8004 41.754 80.328 41.754 80.328C40.8846 68.0458 31.3218 67.5734 31.3218 67.5734C33.0606 60.4875 29.0645 51.233 28.7138 51.9845V51.9845Z" fill="black"/>
</svg>
